<svg width="20" height="20" viewBox="0 0 20 20" fill="none" xmlns="http://www.w3.org/2000/svg">
<path fill-rule="evenodd" clip-rule="evenodd" d="M10 1.25C9.66848 1.25 9.35054 1.3817 9.11611 1.61612C8.88169 1.85054 8.75 2.16848 8.75 2.5V2.625C7.33829 2.91316 6.0695 3.68023 5.15836 4.79637C4.24723 5.91252 3.7497 7.30918 3.75 8.75V13.75L2.24375 15.41C1.515 16.2137 2.085 17.5 3.16875 17.5H7.835C8.05443 17.88 8.37002 18.1956 8.75005 18.415C9.13009 18.6344 9.56118 18.7499 10 18.7499C10.4388 18.7499 10.8699 18.6344 11.2499 18.415C11.63 18.1956 11.9456 17.88 12.165 17.5H16.8312C17.915 17.5 18.485 16.2125 17.7562 15.41L16.25 13.75V8.75C16.2503 7.30918 15.7528 5.91252 14.8416 4.79637C13.9305 3.68023 12.6617 2.91316 11.25 2.625V2.5C11.25 2.16848 11.1183 1.85054 10.8839 1.61612C10.6495 1.3817 10.3315 1.25 10 1.25ZM5.625 14.475L5.1375 15.01L4.58 15.625H15.42L14.8612 15.01L14.375 14.4737V8.75C14.375 8.17547 14.2618 7.60656 14.042 7.07576C13.8221 6.54496 13.4998 6.06266 13.0936 5.65641C12.6873 5.25015 12.205 4.92789 11.6742 4.70803C11.1434 4.48816 10.5745 4.375 10 4.375C9.42546 4.375 8.85656 4.48816 8.32576 4.70803C7.79496 4.92789 7.31266 5.25015 6.90641 5.65641C6.50015 6.06266 6.17789 6.54496 5.95802 7.07576C5.73816 7.60656 5.625 8.17547 5.625 8.75V14.475Z" fill="#802A33"/>
</svg>
